<?xml version="1.0" standalone="no"?>
<!DOCTYPE svg PUBLIC "-//W3C//DTD SVG 20010904//EN"
 "http://www.w3.org/TR/2001/REC-SVG-20010904/DTD/svg10.dtd">
<svg version="1.0" xmlns="http://www.w3.org/2000/svg"
 width="512.000000pt" height="512.000000pt" viewBox="0 0 512.000000 512.000000"
 preserveAspectRatio="xMidYMid meet">

<g transform="translate(0.000000,512.000000) scale(0.100000,-0.100000)"
fill="#000000" stroke="none">
<path d="M295 4986 c-103 -33 -202 -113 -245 -197 -52 -102 -50 7 -50 -2229 0
-2236 -2 -2127 50 -2229 32 -64 113 -139 187 -174 l68 -32 2255 0 2255 0 68
32 c74 35 155 110 187 174 52 102 50 -7 50 2229 0 2236 2 2127 -50 2229 -32
64 -113 139 -187 174 l-68 32 -2240 2 c-1790 1 -2248 -1 -2280 -11z m2361
-1767 c91 -16 199 -74 269 -144 168 -167 207 -393 105 -602 -160 -325 -585
-396 -841 -140 -77 76 -135 192 -149 297 -31 222 87 442 290 542 111 55 208
69 326 47z"/>
</g>
</svg>
